<svg width="73" height="71" viewBox="0 0 73 71" fill="none" xmlns="http://www.w3.org/2000/svg">
<path d="M0 54.2347L68.071 4.66933L81.1481 8.17334L13.0772 57.7387L0 54.2347ZM18.4555 25.7779C15.2853 24.9285 12.6237 23.4265 10.4706 21.272C8.38923 19.0761 6.94634 16.5355 6.14188 13.6502C5.33743 10.7649 5.34476 7.7938 6.16388 4.73681C6.983 1.67981 8.46221 -0.896936 10.6015 -2.99343C12.756 -5.14654 15.2759 -6.62531 18.1612 -7.42977C21.1031 -8.21906 24.1591 -8.18897 27.3293 -7.33952C30.4996 -6.49006 33.1329 -4.99567 35.2294 -2.85635C37.3259 -0.717035 38.7688 1.82357 39.5581 4.76545C40.3625 7.65073 40.3552 10.6219 39.5361 13.6789C38.717 16.7359 37.2377 19.3126 35.0984 21.4091C32.9591 23.5056 30.4392 24.9844 27.5388 25.8454C24.6535 26.6499 21.6258 26.6274 18.4555 25.7779ZM20.9584 16.4371C22.4869 16.8467 23.8517 16.8483 25.0527 16.442C26.2689 15.9791 27.2758 15.2781 28.0735 14.339C28.8864 13.3433 29.4521 12.2511 29.7707 11.0622C30.1044 9.81679 30.1606 8.588 29.9393 7.37587C29.718 6.16374 29.1889 5.08149 28.3519 4.12912C27.5301 3.12014 26.355 2.41086 24.8265 2.0013C23.298 1.59174 21.9256 1.61842 20.7094 2.08132C19.5084 2.48761 18.4807 3.15272 17.6264 4.07664C16.8287 5.01573 16.263 6.108 15.9293 7.35344C15.6107 8.54227 15.5545 9.77106 15.7606 11.0398C16.0385 12.2671 16.5884 13.3852 17.4102 14.3942C18.2472 15.3466 19.4299 16.0276 20.9584 16.4371ZM53.7339 69.7248C50.5637 68.8753 47.902 67.3734 45.7489 65.2189C43.6676 63.0229 42.2247 60.4823 41.4202 57.5971C40.6158 54.7118 40.6231 51.7406 41.4422 48.6837C42.2613 45.6267 43.7406 43.0499 45.8799 40.9534C48.0344 38.8003 50.5542 37.3215 53.4395 36.5171C56.3814 35.7278 59.4375 35.7579 62.6077 36.6073C65.7779 37.4568 68.4113 38.9512 70.5078 41.0905C72.6042 43.2298 74.0471 45.7704 74.8364 48.7123C75.6409 51.5976 75.6336 54.5687 74.8144 57.6257C73.9953 60.6827 72.5161 63.2594 70.3768 65.3559C68.2375 67.4524 65.7176 68.9312 62.8171 69.7923C59.9319 70.5967 56.9041 70.5742 53.7339 69.7248ZM56.2368 60.384C57.7653 60.7935 59.13 60.7952 60.331 60.3889C61.5472 59.9259 62.5542 59.225 63.3519 58.2859C64.1648 57.2902 64.7305 56.1979 65.049 55.0091C65.3828 53.7636 65.439 52.5348 65.2177 51.3227C64.9964 50.1106 64.4672 49.0283 63.6303 48.076C62.8085 47.067 61.6333 46.3577 60.1048 45.9481C58.6329 45.5538 57.2606 45.5804 55.9878 46.0282C54.7868 46.4345 53.7591 47.0996 52.9048 48.0235C52.1071 48.9626 51.5413 50.0548 51.2076 51.3003C50.8891 52.4891 50.8329 53.7179 51.039 54.9866C51.3169 56.2139 51.8667 57.3321 52.6885 58.3411C53.5821 59.3086 54.7649 59.9896 56.2368 60.384Z" fill="white"/>
</svg>
