<svg width="75" height="68" viewBox="0 0 75 68" fill="none" xmlns="http://www.w3.org/2000/svg">
<path d="M34.648 65.322L47.9908 15.526L57.3359 18.03L55.4758 24.9721L55.1446 22.737C56.835 21.2345 58.8349 20.2679 61.1442 19.8374C63.51 19.3743 66.0279 19.5005 68.6979 20.2159C72.169 21.146 75.0797 22.8321 77.4301 25.2743C79.7805 27.7166 81.3915 30.6045 82.2629 33.9382C83.1463 37.2274 83.1111 40.6521 82.1572 44.2121C81.2152 47.7276 79.5334 50.7111 77.1118 53.1624C74.7348 55.6257 71.9179 57.3272 68.6613 58.2671C65.4046 59.2069 61.9963 59.1998 58.4363 58.2459C55.9443 57.5782 53.7495 56.5131 51.8519 55.0508C50.0108 53.5559 48.6835 51.7455 47.8699 49.6197L50.0264 47.9797L44.6606 68.0049L34.648 65.322ZM59.6493 48.9126C61.5184 49.4134 63.2782 49.4319 64.9287 48.9679C66.5793 48.504 68.0078 47.6228 69.2142 46.3244C70.4206 45.026 71.2862 43.3978 71.8108 41.4398C72.3355 39.4818 72.394 37.6612 71.9865 35.9781C71.5909 34.2504 70.7944 32.7731 69.5969 31.546C68.4114 30.2744 66.8841 29.3882 65.0151 28.8874C63.2351 28.4105 61.5198 28.404 59.8692 28.8679C58.2631 29.3438 56.8569 30.2309 55.6505 31.5293C54.4886 32.8396 53.6453 34.4738 53.1206 36.4318C52.596 38.3898 52.5092 40.2267 52.8603 41.9424C53.2559 43.67 54.0302 45.1414 55.1831 46.3566C56.3806 47.5837 57.8693 48.4357 59.6493 48.9126Z" fill="white"/>
<path d="M0 41.7293L13.3249 -8L32.3489 -2.90255C35.7754 -1.98441 38.6404 -0.572834 40.944 1.33219C43.2921 3.24913 44.9067 5.58957 45.7877 8.35351C46.6688 11.1174 46.6443 14.2349 45.7142 17.706C44.808 21.088 43.2542 23.7719 41.0528 25.7575C38.8633 27.6987 36.2948 28.9183 33.3474 29.4163L39.3829 52.2819L27.7683 49.1697L21.3706 23.9178L26.9904 29.6447L15.1755 26.4789L10.3464 44.5016L0 41.7293ZM17.5901 17.4675L26.3344 19.8106C27.803 20.2041 29.1487 20.2546 30.3717 19.9623C31.5948 19.67 32.6327 19.0896 33.4854 18.2211C34.3827 17.3645 35.0101 16.2687 35.3679 14.9337C35.7375 13.5541 35.7479 12.2692 35.3992 11.0787C35.0949 9.90021 34.4863 8.87861 33.5733 8.01393C32.6603 7.14925 31.4695 6.52017 30.001 6.12668L21.2567 3.78364L17.5901 17.4675Z" fill="white"/>
</svg>
